<?xml version="1.0" encoding="utf-8"?>
<!-- Generator: Adobe Illustrator 24.2.3, SVG Export Plug-In . SVG Version: 6.00 Build 0)  -->
<svg version="1.1" id="Layer_1" xmlns="http://www.w3.org/2000/svg" xmlns:xlink="http://www.w3.org/1999/xlink" x="0px" y="0px"
	 viewBox="0 0 612 792" style="enable-background:new 0 0 612 792;" xml:space="preserve">
<style type="text/css">
	.st0{fill:#FFFFFF;}
	.st1{fill:#FFFFFF;stroke:#FFFFFF;stroke-miterlimit:10;}
	.st2{fill:none;stroke:#000000;stroke-width:3;stroke-miterlimit:10;}
	.st3{fill:#FFDE17;stroke:#000000;stroke-width:0.5;stroke-miterlimit:10;}
	.st4{fill:#010101;}
	.st5{fill:none;stroke:#000000;stroke-width:5;stroke-miterlimit:10;}
</style>
<path class="st0" d="M331.6,368.8l-13-35.2l67-181c1.5-4.1-0.6-8.6-4.7-10.1c-4.1-1.5-8.6,0.6-10.1,4.7l-60.7,163.8l-60.7-163.8
	c-1.5-4.1-6-6.2-10.1-4.7c-4.1,1.5-6.2,6-4.7,10.1l67,181L289,368.1"/>
<path class="st0" d="M289,368.1L228.2,532h-59.7c-15.6,0-28.1,10.9-30.3,26.5c-2.2,15.3,6.7,29,21.5,33.3c6,1.7,12.2,2.6,18.6,2.6
	c26.6,0,49.3-15.5,57.5-36.9c0.6-1.7,74.4-201.2,74.4-201.2s72.3,196,72.6,197c6.6,23.7,28.3,41.1,54.1,41.1h11.6
	c14.1,0,25.5-11.5,25.5-25.5V555c0-14.1-11.5-25.5-25.5-25.5h-57.3l-59.5-160.7"/>
<g>
	<path class="st1" d="M184.6,467.3c-28.9,6.8-53.5,12.6-79.3,18.7c0-32.1-0.2-64,0.3-95.9c0-2.4,4.6-6.1,7.7-6.8
		c18.5-4.8,37.1-8.9,57.4-13.6c-2.1-20.5-4.2-41.5-6.4-62.4c-0.6-5.6-1.1-11.1-1.6-16.7c-2.3-25.4-2.3-25.4,21.7-34.7
		c38.6-15,77-30.3,115.7-45c4.4-1.7,10.4-2.7,14.6-1.1c47.5,17.6,94.9,35.8,142.2,53.9c1.1,0.4,2,1.3,3.4,2.3
		c-3.7,34.3-7.4,68.7-11.3,104.6c17.8,4.2,35.4,8.9,53.2,12.3c8.6,1.7,11.6,5,11.4,14.1c-0.6,29.2-0.2,58.4-0.2,88.4
		c-24.4-5.8-48.3-11.4-74.3-17.6c1.3,22.2-16.4,26-29.2,34.1c-30.4,19.2-61.4,37.7-91.8,56.9c-6.2,3.9-10.7,4.2-17.1,0.1
		c-34.5-21.6-69.4-42.6-104.2-63.7C187.7,489.7,177.8,485,184.6,467.3z M506.9,474.4c0-26.5,0.2-52.1-0.3-77.6c0-2.3-4.7-6-7.7-6.5
		c-46.9-7-93.7-15.9-140.9-19.9c-79.8-6.7-158.9,1.9-236.9,19.9c-2.7,0.6-6.6,4.1-6.7,6.4c-0.5,25.5-0.3,50.9-0.3,77.6
		C245.8,443.5,375.7,443.8,506.9,474.4z M378.4,352.2c1.9,0.3,3.7,0.5,5.6,0.8c-4.5-27.7,6.1-51.4,16.4-73.3c0.6,2.9,0.1,9.2,3,12.5
		c11,12.6,12,27.5,12.5,42.8c0.2,6.2,0,12.5,0,18.5c21.7,2.9,21.7,2.9,24-17.1c2-16.7,3.7-33.4,6.2-50c1.1-7.4-1.3-10.6-8.1-13.2
		c-40.5-15-80.7-30.5-121.1-45.6c-3.4-1.3-8.1-1.9-11.3-0.6c-40.9,15.9-81.8,32-122.5,48.4c-2.6,1-5.9,5-5.7,7.3
		c1.9,23.7,4.4,47.4,6.8,70.9c7.3,0,12.7,0,19.5,0c0-15.2,0-29.8,0-44.5c7.1,0,12.9,0,19.9,0c0,8.2,0,15.6,0,22.9
		c6.7,0.5,12.1,0.9,17.1,1.3c1,7,1.8,12.8,2.6,18.5c1.5-0.1,3-0.2,4.5-0.3c0-13.7-0.6-27.3,0.3-40.9c0.4-5.7,3.4-11.5,6.1-16.8
		c2.8-5.4,6.6-10.3,8.5-13.1c2.3,3.2,6.4,8,9.2,13.5c2.7,5.2,4.8,10.9,6.1,16.7c1,4.5,0.2,9.3,0.2,13.9c5,0.6,8.4,1,13.2,1.6
		c0,5.6-0.4,10.7,0.2,15.8c0.3,2,2.9,3.8,4.5,5.6c1.4-1.9,3.8-3.9,3.9-5.8c0.4-12.4,0.3-24.8,0.1-37.2c0-1.7-0.9-4.7-2-5
		c-12.2-3.4-8-14.4-11.5-21.6c9.2-6.9,24.8-6.3,22.6-17.2c-2.1,10.7,13.8,10.8,23.3,18.6c-2.9,6.4-5.6,12.8-8.7,19
		c-1.7,3.3-5.6,6.1-5.9,9.3c-0.8,9.5-0.1,19.2-0.3,28.8c-0.2,8.9,3.9,10,10.9,7.1c1.3-17.2,1.8-17.7,22.4-21.9
		c0,6.9-0.3,13.7,0.2,20.5c0.2,2.2,2.2,4.6,4.1,6.1c0.7,0.5,3.3-1.1,4.9-1.9c4.7-2.5,9.3-5.1,14.8-8
		C376.5,345.1,377.4,348.7,378.4,352.2z M211.8,465c-0.3-0.5-0.6-1-0.9-1.5c-4.9,2.1-9.7,4.2-14.6,6.3c3.4,4.3,6,9.9,10.4,12.7
		c31.4,19.9,63.2,39.1,94.7,58.9c6.3,4,10.9,3.9,17.1-0.1c21.5-13.8,43.5-27,65.3-40.4c11.9-7.3,24-14.4,35.6-22.2
		c2.7-1.8,3.8-6.2,5.6-9.4c-2.9-1.5-5.7-3.7-8.9-4.3c-5.5-1-11.1-0.7-16.6-1.4c-41.4-5-82.8-7.6-124.4-3.6
		C254,462.1,232.9,463.4,211.8,465z"/>
	<path class="st1" d="M378.4,352.2c-1-3.5-1.9-7.1-3.8-13.8c-5.5,3-10.1,5.6-14.8,8c-1.6,0.9-4.2,2.5-4.9,1.9
		c-1.8-1.5-3.9-3.9-4.1-6.1c-0.5-6.7-0.2-13.5-0.2-20.5c-20.5,4.2-21,4.7-22.4,21.9c-7,3-11,1.8-10.9-7.1c0.2-9.6-0.5-19.3,0.3-28.8
		c0.3-3.2,4.2-6,5.9-9.3c3.1-6.2,5.8-12.6,8.7-19c-9.5-7.7-25.4-7.8-23.3-18.6c2.3,10.9-13.3,10.3-22.6,17.2
		c3.6,7.2-0.7,18.2,11.5,21.6c1.1,0.3,2,3.2,2,5c0.2,12.4,0.3,24.8-0.1,37.2c-0.1,2-2.5,3.9-3.9,5.8c-1.6-1.9-4.2-3.6-4.5-5.6
		c-0.7-5-0.2-10.2-0.2-15.8c-4.8-0.6-8.2-1-13.2-1.6c0-4.7,0.8-9.5-0.2-13.9c-1.2-5.7-3.3-11.5-6.1-16.7c-2.9-5.4-7-10.2-9.2-13.5
		c-1.9,2.9-5.8,7.7-8.5,13.1c-2.7,5.3-5.7,11.1-6.1,16.8c-0.9,13.6-0.3,27.3-0.3,40.9c-1.5,0.1-3,0.2-4.5,0.3
		c-0.8-5.7-1.6-11.5-2.6-18.5c-5-0.4-10.4-0.8-17.1-1.3c0-7.3,0-14.6,0-22.9c-7,0-12.7,0-19.9,0c0,14.7,0,29.3,0,44.5
		c-6.8,0-12.3,0-19.5,0c-2.3-23.5-4.9-47.2-6.8-70.9c-0.2-2.3,3.2-6.3,5.7-7.3c40.7-16.4,81.5-32.6,122.5-48.4
		c3.2-1.3,7.9-0.6,11.3,0.6c40.4,15.1,80.7,30.6,121.1,45.6c6.9,2.5,9.3,5.8,8.1,13.2c-2.5,16.6-4.2,33.3-6.2,50
		c-2.4,19.9-2.3,19.9-24,17.1c0-6,0.2-12.3,0-18.5c-0.6-15.3-1.5-30.3-12.5-42.8c-2.9-3.3-2.4-9.6-3-12.5
		c-10.2,21.9-20.9,45.6-16.4,73.3C382.1,352.7,380.3,352.5,378.4,352.2z"/>
	<path class="st1" d="M211.8,465c21.1-1.6,42.2-2.9,63.3-4.9c41.7-4,83.1-1.4,124.4,3.6c5.5,0.7,11.2,0.4,16.6,1.4
		c3.1,0.6,5.9,2.8,8.9,4.3c-1.8,3.2-2.8,7.6-5.6,9.4c-11.6,7.8-23.7,14.9-35.6,22.2c-21.8,13.4-43.8,26.6-65.3,40.4
		c-6.3,4-10.9,4-17.1,0.1c-31.4-19.8-63.3-39-94.7-58.9c-4.4-2.8-7-8.4-10.4-12.7c4.9-2.1,9.7-4.2,14.6-6.3
		C211.2,464,211.5,464.5,211.8,465z"/>
</g>
<g>
	<path d="M501.2,477.8c-125-35.2-257.3-35.2-382.2,0c-3.1,0.9-5.6-1-5.6-4.1c0-26.5,0-53.1,0-79.6c0-3.2,2.5-6.5,5.6-7.4
		c125-35.2,257.3-35.2,382.2,0c3.1,0.9,5.6,4.2,5.6,7.4c0,26.5,0,53.1,0,79.6C506.9,476.8,504.3,478.7,501.2,477.8z"/>
	<path class="st2" d="M501.2,477.8c-125-35.2-257.3-35.2-382.2,0c-3.1,0.9-5.6-1-5.6-4.1c0-26.5,0-53.1,0-79.6
		c0-3.2,2.5-6.5,5.6-7.4c125-35.2,257.3-35.2,382.2,0c3.1,0.9,5.6,4.2,5.6,7.4c0,26.5,0,53.1,0,79.6
		C506.9,476.8,504.3,478.7,501.2,477.8z"/>
</g>
<g>
	<g>
		<path class="st3" d="M213.9,387.8c1.2,0.3,2.3,0.7,3.3,1.1c1,0.4,1.8,0.9,2.5,1.5c0.7,0.6,1.2,1.4,1.6,2.4c0.4,1,0.6,2.2,0.6,3.6
			c0,1.6-0.3,3-0.8,4.3c-0.5,1.3-1.3,2.5-2.4,3.5c-1.1,1-2.4,1.9-3.9,2.6c-1.5,0.7-3.3,1.2-5.3,1.5c-1.8,0.3-3.4,0.4-4.8,0.3
			c-1.4-0.1-2.9-0.3-4.5-0.7c0.1-1,0.3-2.2,0.6-3.4c0.3-1.2,0.6-2.4,1.1-3.7c2.7,0.7,5,1,7,0.7c1.5-0.2,2.7-0.6,3.5-1.2
			c0.8-0.6,1.3-1.4,1.3-2.5c0-0.5-0.1-0.9-0.3-1.2c-0.2-0.3-0.4-0.6-0.7-0.8c-0.3-0.2-0.6-0.3-1-0.5c-0.4-0.1-0.7-0.2-1.1-0.3
			c-0.8-0.2-1.6-0.4-2.5-0.6c-1.1-0.2-2-0.5-2.9-0.9c-0.9-0.4-1.6-0.9-2.2-1.5c-0.6-0.6-1.1-1.4-1.4-2.3c-0.3-0.9-0.5-2-0.5-3.2
			c0-1.6,0.3-3,0.8-4.3c0.5-1.3,1.3-2.4,2.2-3.4c1-1,2.1-1.8,3.5-2.4c1.3-0.6,2.9-1.1,4.5-1.3c1.5-0.2,2.9-0.3,4.3-0.2
			c1.4,0.1,2.9,0.3,4.5,0.7c-0.1,1-0.3,2-0.6,3.2c-0.3,1.2-0.7,2.3-1.2,3.3c-0.8-0.2-1.7-0.4-2.7-0.6c-1-0.2-2.3-0.2-3.8,0
			c-0.5,0.1-0.9,0.2-1.3,0.3c-0.4,0.1-0.8,0.3-1.1,0.6c-0.3,0.2-0.6,0.5-0.8,0.9c-0.2,0.4-0.3,0.8-0.3,1.3c0,0.9,0.3,1.4,0.8,1.8
			c0.6,0.3,1.2,0.6,2,0.8C212.5,387.5,213.2,387.7,213.9,387.8z"/>
		<path class="st3" d="M231.7,404.8c-0.7,0.2-1.3,0.4-1.9,0.5c-0.6,0.1-1.1,0.2-1.6,0.3c-0.5,0.1-1.1,0.1-1.8,0.1
			c-0.7,0-1.5,0-2.3,0c3.3-10.9,6.6-21.8,9.9-32.6c0.8-0.2,1.5-0.3,2.1-0.5c0.7-0.1,1.3-0.2,2-0.3c0.6-0.1,1.2-0.1,1.8-0.1
			c0.7,0,1.4,0,2.3,0c3.3,10.2,6.5,20.3,9.8,30.6c-1.7,0.4-3.2,0.7-4.4,0.8c-0.6,0.1-1.2,0.1-1.8,0.1c-0.6,0-1.2,0-1.9-0.1
			c-0.6-2-1.1-4-1.7-6c-0.8,0.3-1.6,0.6-2.4,0.8c-0.8,0.2-1.5,0.3-2.2,0.4c-0.7,0.1-1.4,0.1-2.1,0.1c-0.7,0-1.4-0.1-2.2-0.2
			C232.7,400.7,232.2,402.7,231.7,404.8z M237.8,380.9c-1,3.9-2,7.7-3,11.6c0.5,0.1,1,0.2,1.4,0.2c0.4,0,0.9,0,1.4,0
			c0.5-0.1,1-0.1,1.5-0.3c0.5-0.1,1-0.3,1.5-0.5C239.7,388.3,238.8,384.6,237.8,380.9z"/>
		<path class="st3" d="M276.6,401.7c-2.4,0.1-4.4-0.1-6-0.6c-1.6-0.6-2.8-1.4-3.7-2.6c-0.9-1.2-1.6-2.6-1.9-4.3
			c-0.4-1.7-0.6-3.6-0.6-5.8c0-6,0-12,0-18c0.9-0.2,1.6-0.3,2.2-0.4c0.6-0.1,1.2-0.1,1.8-0.2c0.5,0,1.1,0,1.7,0c0.6,0,1.3,0,2.2,0.1
			c0,5.7,0,11.4,0,17.1c0,1.5,0.1,2.7,0.2,3.7c0.1,1,0.3,1.8,0.6,2.5c0.3,0.6,0.7,1.1,1.3,1.3c0.6,0.2,1.3,0.3,2.2,0.3
			c0.9,0,1.7-0.2,2.2-0.5c0.6-0.3,1-0.8,1.3-1.4c0.3-0.7,0.5-1.5,0.6-2.5c0.1-1,0.2-2.3,0.2-3.7c0-5.7,0-11.4,0-17.1
			c0.9-0.2,1.6-0.3,2.2-0.3c0.6-0.1,1.2-0.1,1.7-0.1c0.5,0,1.1,0,1.7,0c0.6,0,1.4,0.1,2.2,0.2c0,6,0,12,0,18c0,2.2-0.2,4.1-0.6,5.9
			c-0.4,1.7-1,3.2-1.9,4.5c-0.9,1.3-2.2,2.2-3.7,2.9C281,401.1,279,401.6,276.6,401.7z"/>
		<path class="st3" d="M293.9,369c0.7-0.1,1.2-0.2,1.8-0.3c0.5-0.1,1.1-0.1,1.6-0.1c0.5,0,1.1,0,1.7,0.1c0.6,0.1,1.1,0.1,1.5,0.2
			c3.4,5.7,6.9,11.4,10.3,17.2c0-5.7,0-11.5,0-17.2c0.8-0.1,1.5-0.2,2.1-0.3c0.6-0.1,1.2-0.1,1.7-0.1c0.5,0,1,0,1.6,0.1
			c0.6,0.1,1.2,0.2,1.8,0.3c0,10.5,0,20.9,0,31.4c-0.3,0.1-0.7,0.2-1.3,0.3c-0.6,0.1-1.2,0.1-1.8,0.1c-0.7,0-1.4-0.1-2-0.2
			c-0.6-0.1-1-0.2-1.3-0.2c-3.4-5.7-6.9-11.4-10.3-17.1c0,5.7,0,11.4,0,17.2c-1.3,0.3-2.5,0.4-3.6,0.5c-1.1,0-2.3-0.1-3.6-0.3
			C293.9,389.9,293.9,379.5,293.9,369z"/>
		<path class="st3" d="M327.2,400.8c-1.1,0-2.4-0.2-4-0.5c0-10.5,0-20.9,0-31.4c0.8-0.1,1.5-0.2,2.2-0.2c0.7,0,1.2-0.1,1.7-0.1
			c0.5,0,1.1,0.1,1.8,0.1c0.7,0.1,1.4,0.2,2.2,0.3c0,10.5,0,20.9,0,31.4C329.5,400.7,328.2,400.8,327.2,400.8z"/>
		<path class="st3" d="M342.2,376.3c-2.5-0.1-4.9-0.2-7.4-0.3c-0.3-1.3-0.4-2.4-0.4-3.5c0-1,0.1-2.1,0.4-3.4
			c7.6,0.3,15.1,0.6,22.7,1.1c0.1,0.7,0.2,1.3,0.3,1.8c0.1,0.6,0.1,1.1,0.1,1.6c0,1-0.1,2.1-0.4,3.5c-2.5-0.2-4.9-0.3-7.4-0.5
			c0,8.2,0,16.4,0,24.6c-1.6,0.2-2.9,0.2-3.9,0.2c-1.1-0.1-2.4-0.3-3.9-0.6C342.2,392.7,342.2,384.5,342.2,376.3z"/>
		<path class="st3" d="M377.9,387.1c0,1-0.1,2.2-0.4,3.4c-2.8-0.3-5.7-0.5-8.5-0.8c0,2.1,0,4.2,0,6.2c3.7,0.3,7.4,0.6,11.1,1
			c0.3,1.3,0.4,2.4,0.4,3.4c0,1.1-0.1,2.2-0.4,3.4c-6.3-0.6-12.6-1.2-18.9-1.6c0-10.5,0-21.1,0-31.6c6.2,0.5,12.5,1,18.7,1.6
			c0.1,0.7,0.2,1.3,0.3,1.8c0.1,0.6,0.1,1.1,0.1,1.6c0,1-0.1,2.1-0.4,3.4c-3.6-0.4-7.2-0.7-10.8-1c0,1.6,0,3.2,0,4.8
			c2.8,0.2,5.7,0.5,8.5,0.8C377.8,384.9,377.9,386.1,377.9,387.1z"/>
		<path class="st3" d="M393.2,373c5.6,0.7,9.8,2.6,12.7,5.8c2.9,3.2,4.3,7.5,4.3,13c0,5.6-1.5,9.4-4.4,11.6
			c-2.9,2.2-7.3,2.9-13.1,2.2c-1.5-0.2-2.9-0.4-4.3-0.7c-1.4-0.3-2.7-0.6-4-0.9c0-10.5,0-20.9,0-31.4c0.4,0,1,0,1.7,0
			c0.7,0,1.4,0,2.2,0c0.8,0,1.6,0.1,2.5,0.1C391.6,372.9,392.5,372.9,393.2,373z M392.3,398.7c0.2,0.1,0.4,0.1,0.7,0.1
			c0.3,0,0.5,0.1,0.8,0.1c1.1,0.1,2.2,0.1,3.2,0c1-0.2,1.9-0.5,2.6-1.1c0.7-0.6,1.3-1.5,1.7-2.6c0.4-1.1,0.6-2.7,0.6-4.5
			c0-1.8-0.2-3.4-0.7-4.7c-0.4-1.3-1-2.3-1.7-3.2c-0.7-0.8-1.6-1.4-2.5-1.9c-1-0.4-2-0.7-3-0.8c-0.6-0.1-1-0.1-1.3-0.1
			c-0.3,0-0.4,0-0.5,0C392.3,386.2,392.3,392.4,392.3,398.7z"/>
		<path class="st3" d="M145,444.9c0.8-0.3,1.5-0.6,2.1-0.8c0.6-0.2,1.2-0.4,1.7-0.5c0.5-0.1,1.1-0.2,1.8-0.3c0.7-0.1,1.4-0.2,2-0.2
			c0,5.3,0,10.7,0,16c-1.7,1-3.4,1.9-5.1,2.5c-1.7,0.6-3.1,1.1-4.3,1.4c-2.5,0.6-4.8,0.8-6.7,0.5c-1.9-0.3-3.5-1-4.8-2.1
			c-1.3-1.1-2.2-2.6-2.9-4.4c-0.6-1.8-1-3.9-1-6.3c0-2.3,0.3-4.6,1-6.8c0.7-2.2,1.6-4.2,2.9-6c1.3-1.8,2.8-3.4,4.7-4.7
			c1.8-1.3,3.9-2.2,6.3-2.8c1.4-0.3,2.7-0.6,4-0.7c1.3-0.1,2.6,0,4.2,0.3c-0.1,1.2-0.3,2.4-0.7,3.7c-0.4,1.2-0.8,2.3-1.2,3.2
			c-0.6-0.1-1.1-0.1-1.6-0.1c-0.5,0-0.9,0-1.4,0c-0.4,0-0.9,0.1-1.3,0.1c-0.4,0.1-0.9,0.2-1.4,0.3c-2.3,0.6-4.2,1.8-5.4,3.8
			c-1.3,1.9-1.9,4.5-1.9,7.6c0,3.1,0.6,5.3,1.9,6.5c1.2,1.2,3.1,1.5,5.6,0.9c0.5-0.1,1-0.3,1.5-0.5C145,452,145,448.5,145,444.9z"/>
		<path class="st3" d="M156.6,443.6c0-2.3,0.3-4.6,0.8-6.7c0.5-2.1,1.4-4.1,2.5-5.8c1.1-1.7,2.5-3.2,4.3-4.4
			c1.7-1.2,3.8-2.1,6.2-2.6c2.4-0.5,4.4-0.5,6.2,0c1.7,0.5,3.1,1.4,4.3,2.6c1.1,1.3,2,2.8,2.5,4.7c0.5,1.9,0.8,4,0.8,6.4
			c0,2.3-0.3,4.6-0.8,6.6c-0.5,2.1-1.4,4-2.5,5.6c-1.1,1.7-2.5,3.1-4.3,4.2c-1.7,1.1-3.8,2-6.2,2.5c-2.4,0.5-4.4,0.5-6.2,0.1
			c-1.7-0.4-3.2-1.2-4.3-2.4c-1.1-1.2-1.9-2.7-2.5-4.6C156.9,448.1,156.6,446,156.6,443.6z M175.9,439.5c0-6.4-1.9-9.2-5.6-8.5
			c-3.8,0.8-5.7,4.4-5.7,10.8c0,3.2,0.5,5.5,1.4,6.9c0.9,1.4,2.3,1.9,4.3,1.5C174.1,449.4,175.9,445.8,175.9,439.5z"/>
		<path class="st3" d="M188.5,421.3c0.8-0.3,1.5-0.5,2.1-0.6c0.6-0.2,1.2-0.3,1.7-0.4c0.5-0.1,1.1-0.2,1.8-0.2
			c0.7-0.1,1.4-0.1,2.1-0.1c0,8.2,0,16.4,0,24.6c3.4-0.6,6.8-1.1,10.2-1.6c0.1,0.7,0.2,1.3,0.3,1.9c0,0.5,0.1,1,0.1,1.5
			c0,0.5,0,1-0.1,1.6c0,0.5-0.1,1.2-0.3,2c-6,0.9-12,1.9-17.9,3C188.5,442.3,188.5,431.8,188.5,421.3z"/>
		<path class="st3" d="M210.1,417.7c6.2-0.9,12.4-1.7,18.6-2.5c0.1,0.6,0.2,1.2,0.3,1.8c0.1,0.6,0.1,1.1,0.1,1.6
			c0,1-0.1,2.1-0.4,3.5c-3.6,0.4-7.2,0.9-10.8,1.4c0,1.8,0,3.6,0,5.4c2.8-0.4,5.7-0.8,8.5-1.1c0.3,1.3,0.4,2.4,0.4,3.4
			c0,1-0.1,2.2-0.4,3.5c-2.8,0.3-5.7,0.7-8.5,1.1c0,4.1,0,8.2,0,12.4c-1.6,0.5-2.9,0.8-3.9,0.9c-1.1,0.2-2.4,0.2-3.9,0.2
			C210.1,438.7,210.1,428.2,210.1,417.7z"/>
		<path class="st3" d="M242.3,413.7c6.2-0.6,12.5-1.2,18.7-1.6c0.1,0.6,0.2,1.2,0.3,1.8c0.1,0.6,0.1,1.1,0.1,1.6
			c0,1-0.1,2.1-0.4,3.5c-3.6,0.3-7.2,0.6-10.9,0.9c0,1.8,0,3.6,0,5.4c2.8-0.3,5.7-0.5,8.5-0.7c0.3,1.3,0.4,2.4,0.4,3.4
			c0,1-0.1,2.2-0.4,3.5c-2.8,0.2-5.7,0.4-8.5,0.7c0,4.1,0,8.2,0,12.4c-1.6,0.4-2.9,0.7-3.9,0.7c-1.1,0.1-2.4,0.1-3.9,0
			C242.3,434.7,242.3,424.2,242.3,413.7z"/>
		<path class="st3" d="M276.9,443.3c-2.4,0.1-4.4-0.1-6-0.6c-1.6-0.6-2.8-1.4-3.7-2.6c-0.9-1.2-1.6-2.6-1.9-4.3
			c-0.4-1.7-0.6-3.6-0.6-5.8c0-6,0-12,0-18c0.9-0.2,1.6-0.3,2.2-0.4c0.6-0.1,1.2-0.1,1.8-0.2c0.5,0,1.1,0,1.7,0c0.6,0,1.3,0,2.2,0.1
			c0,5.7,0,11.4,0,17.1c0,1.5,0.1,2.7,0.2,3.7c0.1,1,0.3,1.8,0.6,2.5c0.3,0.6,0.7,1.1,1.3,1.3c0.6,0.2,1.3,0.4,2.2,0.3
			c0.9,0,1.7-0.2,2.2-0.5c0.6-0.3,1-0.8,1.3-1.4c0.3-0.7,0.5-1.5,0.6-2.5c0.1-1,0.2-2.3,0.2-3.7c0-5.7,0-11.4,0-17.1
			c0.9-0.2,1.6-0.3,2.2-0.3c0.6-0.1,1.2-0.1,1.7-0.1c0.5,0,1.1,0,1.7,0c0.6,0,1.4,0.1,2.2,0.2c0,6,0,12,0,18c0,2.2-0.2,4.1-0.6,5.9
			c-0.4,1.7-1,3.2-1.9,4.5c-0.9,1.3-2.2,2.2-3.7,2.9C281.3,442.7,279.3,443.1,276.9,443.3z"/>
		<path class="st3" d="M294.3,410.6c0.7-0.1,1.2-0.2,1.8-0.3c0.5-0.1,1.1-0.1,1.6-0.1c0.5,0,1.1,0,1.7,0.1c0.6,0.1,1.1,0.1,1.5,0.2
			c3.4,5.7,6.9,11.4,10.3,17.2c0-5.7,0-11.5,0-17.2c0.8-0.1,1.5-0.2,2.1-0.3c0.6-0.1,1.2-0.1,1.7-0.1c0.5,0,1,0,1.6,0.1
			c0.6,0.1,1.2,0.2,1.8,0.3c0,10.5,0,20.9,0,31.4c-0.3,0.1-0.7,0.2-1.3,0.3c-0.6,0.1-1.2,0.1-1.8,0.1c-0.7,0-1.4-0.1-2-0.2
			c-0.6-0.1-1-0.2-1.3-0.2c-3.4-5.7-6.9-11.4-10.3-17.1c0,5.7,0,11.4,0,17.2c-1.3,0.3-2.5,0.4-3.6,0.5c-1.1,0-2.3-0.1-3.6-0.3
			C294.3,431.5,294.3,421.1,294.3,410.6z"/>
		<path class="st3" d="M332.4,410.1c5.6,0.2,9.8,1.8,12.7,4.7c2.9,2.9,4.3,7.1,4.3,12.6c0,5.6-1.5,9.6-4.4,12
			c-3,2.5-7.3,3.6-13.1,3.4c-1.5,0-2.9-0.1-4.3-0.3c-1.4-0.2-2.7-0.3-4.1-0.5c0-10.5,0-20.9,0-31.4c0.4-0.1,1-0.1,1.7-0.2
			c0.7-0.1,1.4-0.1,2.2-0.1c0.8,0,1.6-0.1,2.5-0.1C330.7,410.1,331.6,410.1,332.4,410.1z M331.4,435.8c0.2,0,0.4,0.1,0.7,0.1
			c0.3,0,0.5,0,0.8,0c1.2,0,2.2-0.1,3.3-0.3c1-0.2,1.9-0.7,2.6-1.4c0.7-0.7,1.3-1.6,1.8-2.8c0.4-1.2,0.6-2.7,0.6-4.6
			c0-1.8-0.2-3.4-0.7-4.6c-0.4-1.3-1-2.3-1.8-3c-0.7-0.7-1.6-1.3-2.6-1.6c-1-0.3-2-0.5-3.1-0.6c-0.6,0-1,0-1.3,0c-0.3,0-0.4,0-0.5,0
			C331.4,423.3,331.4,429.6,331.4,435.8z"/>
		<path class="st3" d="M353.9,411.7c1.4-0.1,2.8-0.1,4-0.2c1.2,0,2.5,0,3.9,0.1c1.6,0.1,3.2,0.4,4.9,0.8c1.6,0.4,3.1,1.1,4.3,2
			c1.3,0.9,2.3,2,3.1,3.4c0.8,1.4,1.2,3.1,1.2,5.1c0,1.1-0.1,2-0.4,2.9c-0.3,0.8-0.6,1.6-1,2.2c-0.4,0.6-0.8,1.2-1.3,1.6
			c-0.5,0.5-1,0.8-1.4,1.1c2.3,4.7,4.6,9.4,6.9,14.2c-0.7,0-1.5,0.1-2.3,0c-0.8,0-1.6-0.1-2.3-0.1c-0.6-0.1-1.3-0.1-2.1-0.3
			c-0.8-0.1-1.5-0.3-2.1-0.4c-2.1-5-4.2-9.9-6.3-14.9c0.1-0.1,0.3-0.1,0.4-0.2c0.4-0.1,0.7-0.4,1.2-0.8c0.4-0.4,0.8-0.8,1.2-1.4
			c0.4-0.5,0.7-1.2,0.9-1.8c0.3-0.7,0.4-1.4,0.4-2.2c0-1.5-0.4-2.6-1.2-3.3c-0.8-0.7-1.8-1.2-3.1-1.2c-0.3,0-0.5,0-0.8,0
			c-0.2,0-0.3,0-0.4,0.1c0,8.4,0,16.8,0,25.2c-1.6,0.1-2.9,0.2-3.9,0.1c-1.1-0.1-2.4-0.3-3.9-0.7
			C353.9,432.6,353.9,422.2,353.9,411.7z"/>
		<path class="st3" d="M386.4,445.9c-0.7,0-1.3,0.1-1.9,0.1c-0.6,0-1.1,0-1.6-0.1c-0.5-0.1-1.1-0.2-1.8-0.3
			c-0.7-0.1-1.5-0.3-2.3-0.6c3.3-10.1,6.6-20.3,9.9-30.4c0.8,0,1.5,0,2.1,0c0.7,0,1.3,0.1,2,0.1c0.6,0.1,1.2,0.2,1.8,0.3
			c0.7,0.1,1.4,0.3,2.3,0.5c3.3,10.9,6.5,21.8,9.7,32.7c-1.7,0-3.1,0-4.4-0.2c-0.6-0.1-1.2-0.2-1.8-0.3c-0.6-0.1-1.2-0.3-1.9-0.5
			c-0.6-2.1-1.1-4.2-1.7-6.3c-0.8,0.1-1.6,0.2-2.4,0.2c-0.8,0-1.5,0-2.2-0.1c-0.7-0.1-1.4-0.2-2.1-0.4c-0.7-0.2-1.4-0.4-2.2-0.7
			C387.5,442,387,444,386.4,445.9z M392.6,423.4c-1,3.7-2,7.3-3,11c0.5,0.2,1,0.4,1.4,0.5c0.4,0.1,0.9,0.2,1.4,0.3
			c0.5,0.1,1,0.1,1.5,0.1c0.5,0,1-0.1,1.5-0.1C394.5,431.2,393.5,427.3,392.6,423.4z"/>
		<path class="st3" d="M413.5,449.8c-1.1-0.2-2.4-0.5-3.9-1c0-10.5,0-20.9,0-31.4c0.8,0,1.5,0,2.2,0c0.6,0,1.2,0.1,1.7,0.2
			c0.5,0.1,1.1,0.2,1.8,0.4c0.7,0.2,1.4,0.4,2.1,0.6c0,10.5,0,20.9,0,31.4C415.8,450,414.5,449.9,413.5,449.8z"/>
		<path class="st3" d="M434.9,433.7c1.2,0.7,2.3,1.4,3.3,2.1c1,0.7,1.8,1.5,2.5,2.3c0.7,0.9,1.2,1.8,1.6,2.9
			c0.4,1.1,0.6,2.3,0.6,3.8c0,1.6-0.3,2.9-0.8,4c-0.5,1.1-1.3,2.1-2.4,2.8c-1.1,0.7-2.3,1.1-3.9,1.3c-1.5,0.2-3.3,0.1-5.3-0.2
			c-1.8-0.3-3.4-0.7-4.8-1.3c-1.4-0.5-2.9-1.2-4.5-2.1c0.1-1,0.3-2.1,0.6-3.2c0.3-1.1,0.6-2.2,1.1-3.4c2.7,1.6,5,2.6,7,2.9
			c1.5,0.3,2.7,0.2,3.5-0.1c0.8-0.3,1.2-1,1.3-2.1c0-0.5-0.1-0.9-0.3-1.3c-0.2-0.4-0.4-0.7-0.7-1c-0.3-0.3-0.6-0.5-1-0.8
			c-0.4-0.2-0.7-0.4-1.1-0.7c-0.8-0.5-1.6-0.9-2.5-1.4c-1.1-0.6-2-1.2-2.9-1.9c-0.9-0.7-1.6-1.4-2.2-2.2c-0.6-0.8-1.1-1.7-1.4-2.7
			c-0.3-1-0.5-2.1-0.5-3.4c0-1.6,0.3-2.9,0.8-4c0.5-1.1,1.3-2,2.2-2.7c1-0.7,2.1-1.1,3.4-1.3c1.3-0.2,2.9-0.1,4.5,0.2
			c1.5,0.3,2.9,0.7,4.3,1.2c1.4,0.5,2.9,1.3,4.4,2.1c-0.1,0.9-0.3,1.9-0.6,3c-0.3,1.1-0.7,2.1-1.2,3c-0.8-0.5-1.7-1-2.7-1.5
			c-1-0.5-2.3-1-3.8-1.2c-0.5-0.1-0.9-0.1-1.3-0.1c-0.4,0-0.8,0.1-1.1,0.2c-0.3,0.1-0.6,0.3-0.8,0.7c-0.2,0.3-0.3,0.7-0.3,1.2
			c0,0.9,0.3,1.5,0.8,2c0.6,0.5,1.2,1,2,1.4C433.5,432.9,434.2,433.3,434.9,433.7z"/>
		<path class="st3" d="M463.9,442.4c0,1-0.1,2.1-0.4,3.3c-2.8-0.6-5.6-1.2-8.4-1.8c0,2.1,0,4.2,0,6.2c3.7,0.8,7.3,1.6,10.9,2.4
			c0.3,1.3,0.4,2.4,0.4,3.4c0,1.1-0.1,2.2-0.4,3.4c-6.2-1.4-12.4-2.8-18.7-4c0-10.5,0-21.1,0-31.6c6.2,1.2,12.3,2.5,18.4,3.9
			c0.1,0.7,0.2,1.3,0.3,1.9c0.1,0.6,0.1,1.1,0.1,1.6c0,1-0.1,2.1-0.3,3.4c-3.6-0.8-7.1-1.6-10.7-2.4c0,1.6,0,3.2,0,4.8
			c2.8,0.6,5.6,1.2,8.4,1.8C463.8,440.3,463.9,441.5,463.9,442.4z"/>
		<path class="st3" d="M470.3,428.9c1.4,0.2,2.7,0.4,3.9,0.5c1.2,0.2,2.5,0.4,3.8,0.7c1.6,0.4,3.2,0.9,4.8,1.7
			c1.6,0.7,3,1.6,4.2,2.7c1.2,1.1,2.3,2.4,3,3.9c0.8,1.5,1.2,3.3,1.2,5.3c0,1.1-0.1,2-0.4,2.8c-0.2,0.8-0.6,1.5-1,2.1
			c-0.4,0.6-0.8,1-1.3,1.4c-0.5,0.4-0.9,0.7-1.4,0.9c2.3,5.1,4.5,10.2,6.7,15.4c-0.7-0.1-1.4-0.2-2.3-0.4c-0.8-0.2-1.6-0.3-2.2-0.5
			c-0.6-0.2-1.2-0.4-2-0.6c-0.8-0.3-1.4-0.5-2-0.8c-2.1-5.3-4.1-10.6-6.2-16c0.1,0,0.3-0.1,0.4-0.1c0.3-0.1,0.7-0.3,1.1-0.6
			c0.4-0.3,0.8-0.7,1.2-1.2c0.4-0.5,0.7-1,0.9-1.7c0.2-0.6,0.4-1.3,0.4-2.1c0-1.5-0.4-2.6-1.2-3.5c-0.8-0.9-1.8-1.5-3-1.8
			c-0.3-0.1-0.5-0.1-0.7-0.1c-0.2,0-0.3,0-0.4,0c0,8.4,0,16.8,0,25.2c-1.5-0.1-2.8-0.3-3.8-0.5c-1.1-0.3-2.4-0.7-3.9-1.3
			C470.3,449.8,470.3,439.4,470.3,428.9z"/>
	</g>
</g>
<g>
	<g>
		<path class="st3" d="M272.3,267.9c-0.1-0.3-0.3-0.6-0.4-0.9c2.1-3.3,4.2-6.6,6.3-9.8c1.1-1.7,1.9-3.1,2.5-4.2
			c0.5-1.1,0.8-2.1,0.8-2.9c0-0.7-0.3-1.3-0.8-1.6c-0.5-0.3-1.3-0.4-2.2-0.2c-0.9,0.2-1.8,0.5-2.5,1c-0.8,0.5-1.5,1-2.1,1.5
			c-0.4-0.8-0.7-1.5-1-2.3c-0.3-0.8-0.5-1.6-0.5-2.5c0.8-0.6,1.8-1.3,3-1.9c1.2-0.6,2.5-1,4-1.3c1.2-0.2,2.3-0.3,3.4-0.2
			c1,0.1,1.9,0.4,2.7,0.9c0.8,0.5,1.4,1.1,1.8,1.9c0.4,0.8,0.6,1.9,0.6,3.1c0,0.9-0.1,1.7-0.3,2.5c-0.2,0.8-0.5,1.6-0.8,2.3
			c-0.3,0.7-0.7,1.5-1.1,2.1c-0.4,0.7-0.8,1.4-1.2,2c-0.7,1.1-1.4,2.1-2,3.2c2.1-0.4,4.2-0.7,6.3-1c0.2,1,0.3,1.8,0.3,2.6
			c0,0.8-0.1,1.8-0.3,2.8C283.1,265.6,277.7,266.6,272.3,267.9z"/>
		<path class="st3" d="M301.1,239.8c1.6-0.1,3,0.2,4.2,0.7c1.2,0.6,2.2,1.4,2.9,2.5c0.8,1.1,1.3,2.4,1.7,3.8
			c0.4,1.5,0.5,3.1,0.5,4.8c0,1.7-0.2,3.3-0.6,4.8c-0.4,1.5-1,2.7-1.7,3.8c-0.8,1.1-1.8,2-3,2.6c-1.2,0.7-2.6,1-4.2,1.1
			c-1.6,0.1-3-0.1-4.2-0.6c-1.2-0.5-2.2-1.3-2.9-2.3c-0.8-1-1.3-2.2-1.7-3.6c-0.4-1.4-0.6-3-0.6-4.7c0-1.7,0.2-3.4,0.6-4.9
			c0.4-1.5,1-2.9,1.7-4.1c0.8-1.2,1.8-2.1,2.9-2.9C298,240.4,299.4,239.9,301.1,239.8z M301,245.3c-1,0.1-1.7,0.7-2.2,1.8
			c-0.5,1.2-0.8,2.9-0.8,5.1c0,2.2,0.3,3.9,0.8,5c0.5,1.1,1.3,1.6,2.2,1.5c0.9-0.1,1.6-0.7,2.2-1.8c0.5-1.2,0.8-2.8,0.8-5.1
			c0-2.3-0.3-3.9-0.8-5C302.6,245.8,301.9,245.2,301,245.3z"/>
		<path class="st3" d="M312.9,263.4c-0.1-0.3-0.3-0.7-0.4-1c2.2-2.8,4.3-5.6,6.5-8.3c1.1-1.4,1.9-2.6,2.5-3.6c0.5-1,0.8-1.9,0.8-2.7
			c0-0.7-0.3-1.4-0.8-1.8c-0.5-0.5-1.3-0.7-2.3-0.8c-0.9,0-1.8,0.1-2.6,0.4c-0.8,0.3-1.5,0.6-2.1,1c-0.4-0.8-0.7-1.7-1-2.6
			c-0.3-0.9-0.5-1.8-0.5-2.7c0.8-0.4,1.8-0.8,3-1.1c1.2-0.3,2.5-0.4,4-0.4c1.2,0.1,2.4,0.3,3.4,0.6c1,0.4,2,0.9,2.7,1.5
			c0.8,0.7,1.4,1.4,1.8,2.4c0.4,0.9,0.7,2,0.7,3.2c0,0.9-0.1,1.7-0.3,2.4c-0.2,0.7-0.5,1.5-0.8,2.1c-0.3,0.7-0.7,1.3-1.1,1.9
			c-0.4,0.6-0.8,1.2-1.2,1.7c-0.7,0.9-1.4,1.8-2.1,2.7c2.1,0.1,4.2,0.3,6.3,0.5c0.2,1,0.3,1.9,0.3,2.7c0,0.8-0.1,1.8-0.3,2.7
			C323.8,263.7,318.3,263.4,312.9,263.4z"/>
		<path class="st3" d="M341.8,242.3c1.6,0.3,3,0.9,4.1,1.7c1.2,0.9,2.1,1.9,2.9,3.2c0.8,1.3,1.3,2.7,1.7,4.3c0.4,1.6,0.5,3.2,0.5,5
			c0,1.7-0.2,3.3-0.6,4.7c-0.4,1.4-0.9,2.5-1.7,3.4c-0.8,0.9-1.7,1.5-2.9,1.9c-1.2,0.4-2.6,0.4-4.2,0.1c-1.6-0.3-3-0.8-4.2-1.6
			c-1.2-0.8-2.1-1.8-2.9-3c-0.8-1.2-1.3-2.5-1.7-4c-0.4-1.5-0.6-3.1-0.6-4.9c0-1.7,0.2-3.3,0.6-4.8c0.4-1.4,1-2.7,1.7-3.6
			c0.8-1,1.7-1.7,2.9-2.1C338.7,242,340.1,242,341.8,242.3z M341.7,247.7c-1-0.2-1.7,0.3-2.2,1.3c-0.5,1-0.8,2.7-0.8,4.9
			c0,2.2,0.3,4,0.8,5.2c0.5,1.2,1.3,1.9,2.2,2.1c0.9,0.2,1.6-0.3,2.1-1.3c0.5-1,0.8-2.7,0.8-4.9c0-2.3-0.3-4-0.8-5.2
			C343.3,248.5,342.6,247.8,341.7,247.7z"/>
	</g>
</g>
<path class="st4" d="M309.8,481.1c-14.6,0-26.5,11.9-26.5,26.5c0,12.4,8.5,22.8,20,25.7v13.3h13v-13.3c11.5-2.9,20-13.3,20-25.7
	C336.3,493,324.5,481.1,309.8,481.1z M309.8,522.5c-7.4,0-13.5-6.1-13.5-13.5s6.1-13.5,13.5-13.5s13.5,6.1,13.5,13.5
	S317.3,522.5,309.8,522.5z"/>
<g>
	<path class="st5" d="M196.2,467.6C271,447,350,446.9,424.8,467.2"/>
</g>
</svg>
